<?xml version="1.0" standalone="no"?>
<!DOCTYPE svg PUBLIC "-//W3C//DTD SVG 20010904//EN"
 "http://www.w3.org/TR/2001/REC-SVG-20010904/DTD/svg10.dtd">
<svg version="1.0" xmlns="http://www.w3.org/2000/svg"
 width="512.000000pt" height="512.000000pt" viewBox="0 0 512.000000 512.000000"
 preserveAspectRatio="xMidYMid meet">
<metadata>
Created by potrace 1.11, written by Peter Selinger 2001-2013
</metadata>
<g transform="translate(0.000000,512.000000) scale(0.100000,-0.100000)"
fill="#000000" stroke="none">
<path d="M2455 3549 c-234 -25 -447 -130 -611 -301 -183 -190 -276 -423 -276
-688 0 -276 95 -505 291 -701 196 -196 425 -291 701 -291 276 0 505 95 701
291 196 196 291 425 291 701 0 189 -49 365 -144 521 -68 112 -215 259 -327
327 -181 111 -416 164 -626 141z"/>
</g>
</svg>
